<mxfile host="app.diagrams.net" modified="2020-08-13T23:11:45.265Z" agent="5.0 (Windows NT 10.0; Win64; x64) AppleWebKit/537.36 (KHTML, like Gecko) Chrome/84.0.4147.125 Safari/537.36" etag="4IMSO2DpuG3zaLwtFS_s" version="13.6.2" type="github">
  <diagram id="R2lEEEUBdFMjLlhIrx00" name="Page-1">
    <mxGraphModel dx="3694" dy="1608" grid="1" gridSize="10" guides="1" tooltips="1" connect="1" arrows="1" fold="1" page="1" pageScale="1" pageWidth="850" pageHeight="1100" math="0" shadow="0" extFonts="Permanent Marker^https://fonts.googleapis.com/css?family=Permanent+Marker">
      <root>
        <mxCell id="0" />
        <mxCell id="1" parent="0" />
        <mxCell id="V0HynzZhf9_uyb5cIiKA-1" value="Patient " style="shape=table;startSize=30;container=1;collapsible=1;childLayout=tableLayout;fixedRows=1;rowLines=0;fontStyle=1;align=center;resizeLast=1;" vertex="1" parent="1">
          <mxGeometry x="30" y="40" width="250" height="430" as="geometry" />
        </mxCell>
        <mxCell id="V0HynzZhf9_uyb5cIiKA-2" value="" style="shape=partialRectangle;collapsible=0;dropTarget=0;pointerEvents=0;fillColor=none;points=[[0,0.5],[1,0.5]];portConstraint=eastwest;top=0;left=0;right=0;bottom=1;" vertex="1" parent="V0HynzZhf9_uyb5cIiKA-1">
          <mxGeometry y="30" width="250" height="30" as="geometry" />
        </mxCell>
        <mxCell id="V0HynzZhf9_uyb5cIiKA-3" value="PK" style="shape=partialRectangle;overflow=hidden;connectable=0;fillColor=none;top=0;left=0;bottom=0;right=0;fontStyle=1;" vertex="1" parent="V0HynzZhf9_uyb5cIiKA-2">
          <mxGeometry width="30" height="30" as="geometry" />
        </mxCell>
        <mxCell id="V0HynzZhf9_uyb5cIiKA-4" value="patientID int  NOT NULL " style="shape=partialRectangle;overflow=hidden;connectable=0;fillColor=none;top=0;left=0;bottom=0;right=0;align=left;spacingLeft=6;fontStyle=5;" vertex="1" parent="V0HynzZhf9_uyb5cIiKA-2">
          <mxGeometry x="30" width="220" height="30" as="geometry" />
        </mxCell>
        <mxCell id="V0HynzZhf9_uyb5cIiKA-5" value="" style="shape=partialRectangle;collapsible=0;dropTarget=0;pointerEvents=0;fillColor=none;points=[[0,0.5],[1,0.5]];portConstraint=eastwest;top=0;left=0;right=0;bottom=0;" vertex="1" parent="V0HynzZhf9_uyb5cIiKA-1">
          <mxGeometry y="60" width="250" height="30" as="geometry" />
        </mxCell>
        <mxCell id="V0HynzZhf9_uyb5cIiKA-6" value="" style="shape=partialRectangle;overflow=hidden;connectable=0;fillColor=none;top=0;left=0;bottom=0;right=0;" vertex="1" parent="V0HynzZhf9_uyb5cIiKA-5">
          <mxGeometry width="30" height="30" as="geometry" />
        </mxCell>
        <mxCell id="V0HynzZhf9_uyb5cIiKA-7" value="FName Char(20)" style="shape=partialRectangle;overflow=hidden;connectable=0;fillColor=none;top=0;left=0;bottom=0;right=0;align=left;spacingLeft=6;" vertex="1" parent="V0HynzZhf9_uyb5cIiKA-5">
          <mxGeometry x="30" width="220" height="30" as="geometry" />
        </mxCell>
        <mxCell id="V0HynzZhf9_uyb5cIiKA-8" value="" style="shape=partialRectangle;collapsible=0;dropTarget=0;pointerEvents=0;fillColor=none;points=[[0,0.5],[1,0.5]];portConstraint=eastwest;top=0;left=0;right=0;bottom=0;" vertex="1" parent="V0HynzZhf9_uyb5cIiKA-1">
          <mxGeometry y="90" width="250" height="30" as="geometry" />
        </mxCell>
        <mxCell id="V0HynzZhf9_uyb5cIiKA-9" value="" style="shape=partialRectangle;overflow=hidden;connectable=0;fillColor=none;top=0;left=0;bottom=0;right=0;" vertex="1" parent="V0HynzZhf9_uyb5cIiKA-8">
          <mxGeometry width="30" height="30" as="geometry" />
        </mxCell>
        <mxCell id="V0HynzZhf9_uyb5cIiKA-10" value="LName Char(20)" style="shape=partialRectangle;overflow=hidden;connectable=0;fillColor=none;top=0;left=0;bottom=0;right=0;align=left;spacingLeft=6;" vertex="1" parent="V0HynzZhf9_uyb5cIiKA-8">
          <mxGeometry x="30" width="220" height="30" as="geometry" />
        </mxCell>
        <mxCell id="V0HynzZhf9_uyb5cIiKA-11" value="" style="shape=partialRectangle;collapsible=0;dropTarget=0;pointerEvents=0;fillColor=none;points=[[0,0.5],[1,0.5]];portConstraint=eastwest;top=0;left=0;right=0;bottom=0;" vertex="1" parent="V0HynzZhf9_uyb5cIiKA-1">
          <mxGeometry y="120" width="250" height="30" as="geometry" />
        </mxCell>
        <mxCell id="V0HynzZhf9_uyb5cIiKA-12" value="" style="shape=partialRectangle;overflow=hidden;connectable=0;fillColor=none;top=0;left=0;bottom=0;right=0;" vertex="1" parent="V0HynzZhf9_uyb5cIiKA-11">
          <mxGeometry width="30" height="30" as="geometry" />
        </mxCell>
        <mxCell id="V0HynzZhf9_uyb5cIiKA-13" value="Age Int" style="shape=partialRectangle;overflow=hidden;connectable=0;fillColor=none;top=0;left=0;bottom=0;right=0;align=left;spacingLeft=6;" vertex="1" parent="V0HynzZhf9_uyb5cIiKA-11">
          <mxGeometry x="30" width="220" height="30" as="geometry" />
        </mxCell>
        <mxCell id="V0HynzZhf9_uyb5cIiKA-14" value="" style="shape=partialRectangle;collapsible=0;dropTarget=0;pointerEvents=0;fillColor=none;points=[[0,0.5],[1,0.5]];portConstraint=eastwest;top=0;left=0;right=0;bottom=0;" vertex="1" parent="V0HynzZhf9_uyb5cIiKA-1">
          <mxGeometry y="150" width="250" height="30" as="geometry" />
        </mxCell>
        <mxCell id="V0HynzZhf9_uyb5cIiKA-15" value="" style="shape=partialRectangle;overflow=hidden;connectable=0;fillColor=none;top=0;left=0;bottom=0;right=0;" vertex="1" parent="V0HynzZhf9_uyb5cIiKA-14">
          <mxGeometry width="30" height="30" as="geometry" />
        </mxCell>
        <mxCell id="V0HynzZhf9_uyb5cIiKA-16" value="Gender Char(1)" style="shape=partialRectangle;overflow=hidden;connectable=0;fillColor=none;top=0;left=0;bottom=0;right=0;align=left;spacingLeft=6;" vertex="1" parent="V0HynzZhf9_uyb5cIiKA-14">
          <mxGeometry x="30" width="220" height="30" as="geometry" />
        </mxCell>
        <mxCell id="V0HynzZhf9_uyb5cIiKA-17" value="" style="shape=partialRectangle;collapsible=0;dropTarget=0;pointerEvents=0;fillColor=none;points=[[0,0.5],[1,0.5]];portConstraint=eastwest;top=0;left=0;right=0;bottom=0;" vertex="1" parent="V0HynzZhf9_uyb5cIiKA-1">
          <mxGeometry y="180" width="250" height="30" as="geometry" />
        </mxCell>
        <mxCell id="V0HynzZhf9_uyb5cIiKA-18" value="" style="shape=partialRectangle;overflow=hidden;connectable=0;fillColor=none;top=0;left=0;bottom=0;right=0;" vertex="1" parent="V0HynzZhf9_uyb5cIiKA-17">
          <mxGeometry width="30" height="30" as="geometry" />
        </mxCell>
        <mxCell id="V0HynzZhf9_uyb5cIiKA-19" value="PhoneNumber Int" style="shape=partialRectangle;overflow=hidden;connectable=0;fillColor=none;top=0;left=0;bottom=0;right=0;align=left;spacingLeft=6;" vertex="1" parent="V0HynzZhf9_uyb5cIiKA-17">
          <mxGeometry x="30" width="220" height="30" as="geometry" />
        </mxCell>
        <mxCell id="V0HynzZhf9_uyb5cIiKA-20" value="" style="shape=partialRectangle;collapsible=0;dropTarget=0;pointerEvents=0;fillColor=none;points=[[0,0.5],[1,0.5]];portConstraint=eastwest;top=0;left=0;right=0;bottom=0;" vertex="1" parent="V0HynzZhf9_uyb5cIiKA-1">
          <mxGeometry y="210" width="250" height="30" as="geometry" />
        </mxCell>
        <mxCell id="V0HynzZhf9_uyb5cIiKA-21" value="" style="shape=partialRectangle;overflow=hidden;connectable=0;fillColor=none;top=0;left=0;bottom=0;right=0;" vertex="1" parent="V0HynzZhf9_uyb5cIiKA-20">
          <mxGeometry width="30" height="30" as="geometry" />
        </mxCell>
        <mxCell id="V0HynzZhf9_uyb5cIiKA-22" value="EmailAddress Char(100)" style="shape=partialRectangle;overflow=hidden;connectable=0;fillColor=none;top=0;left=0;bottom=0;right=0;align=left;spacingLeft=6;" vertex="1" parent="V0HynzZhf9_uyb5cIiKA-20">
          <mxGeometry x="30" width="220" height="30" as="geometry" />
        </mxCell>
        <mxCell id="V0HynzZhf9_uyb5cIiKA-23" value="" style="shape=partialRectangle;collapsible=0;dropTarget=0;pointerEvents=0;fillColor=none;points=[[0,0.5],[1,0.5]];portConstraint=eastwest;top=0;left=0;right=0;bottom=0;" vertex="1" parent="V0HynzZhf9_uyb5cIiKA-1">
          <mxGeometry y="240" width="250" height="30" as="geometry" />
        </mxCell>
        <mxCell id="V0HynzZhf9_uyb5cIiKA-24" value="" style="shape=partialRectangle;overflow=hidden;connectable=0;fillColor=none;top=0;left=0;bottom=0;right=0;" vertex="1" parent="V0HynzZhf9_uyb5cIiKA-23">
          <mxGeometry width="30" height="30" as="geometry" />
        </mxCell>
        <mxCell id="V0HynzZhf9_uyb5cIiKA-25" value="Address Char(30)" style="shape=partialRectangle;overflow=hidden;connectable=0;fillColor=none;top=0;left=0;bottom=0;right=0;align=left;spacingLeft=6;" vertex="1" parent="V0HynzZhf9_uyb5cIiKA-23">
          <mxGeometry x="30" width="220" height="30" as="geometry" />
        </mxCell>
        <mxCell id="V0HynzZhf9_uyb5cIiKA-26" value="" style="shape=partialRectangle;collapsible=0;dropTarget=0;pointerEvents=0;fillColor=none;points=[[0,0.5],[1,0.5]];portConstraint=eastwest;top=0;left=0;right=0;bottom=0;" vertex="1" parent="V0HynzZhf9_uyb5cIiKA-1">
          <mxGeometry y="270" width="250" height="30" as="geometry" />
        </mxCell>
        <mxCell id="V0HynzZhf9_uyb5cIiKA-27" value="" style="shape=partialRectangle;overflow=hidden;connectable=0;fillColor=none;top=0;left=0;bottom=0;right=0;" vertex="1" parent="V0HynzZhf9_uyb5cIiKA-26">
          <mxGeometry width="30" height="30" as="geometry" />
        </mxCell>
        <mxCell id="V0HynzZhf9_uyb5cIiKA-28" value="Region / State Char(30)" style="shape=partialRectangle;overflow=hidden;connectable=0;fillColor=none;top=0;left=0;bottom=0;right=0;align=left;spacingLeft=6;" vertex="1" parent="V0HynzZhf9_uyb5cIiKA-26">
          <mxGeometry x="30" width="220" height="30" as="geometry" />
        </mxCell>
        <mxCell id="V0HynzZhf9_uyb5cIiKA-29" value="" style="shape=partialRectangle;collapsible=0;dropTarget=0;pointerEvents=0;fillColor=none;points=[[0,0.5],[1,0.5]];portConstraint=eastwest;top=0;left=0;right=0;bottom=0;" vertex="1" parent="V0HynzZhf9_uyb5cIiKA-1">
          <mxGeometry y="300" width="250" height="30" as="geometry" />
        </mxCell>
        <mxCell id="V0HynzZhf9_uyb5cIiKA-30" value="" style="shape=partialRectangle;overflow=hidden;connectable=0;fillColor=none;top=0;left=0;bottom=0;right=0;" vertex="1" parent="V0HynzZhf9_uyb5cIiKA-29">
          <mxGeometry width="30" height="30" as="geometry" />
        </mxCell>
        <mxCell id="V0HynzZhf9_uyb5cIiKA-31" value="Country Char(30)" style="shape=partialRectangle;overflow=hidden;connectable=0;fillColor=none;top=0;left=0;bottom=0;right=0;align=left;spacingLeft=6;" vertex="1" parent="V0HynzZhf9_uyb5cIiKA-29">
          <mxGeometry x="30" width="220" height="30" as="geometry" />
        </mxCell>
        <mxCell id="V0HynzZhf9_uyb5cIiKA-32" value="" style="shape=partialRectangle;collapsible=0;dropTarget=0;pointerEvents=0;fillColor=none;points=[[0,0.5],[1,0.5]];portConstraint=eastwest;top=0;left=0;right=0;bottom=0;" vertex="1" parent="V0HynzZhf9_uyb5cIiKA-1">
          <mxGeometry y="330" width="250" height="30" as="geometry" />
        </mxCell>
        <mxCell id="V0HynzZhf9_uyb5cIiKA-33" value="FK" style="shape=partialRectangle;overflow=hidden;connectable=0;fillColor=none;top=0;left=0;bottom=0;right=0;" vertex="1" parent="V0HynzZhf9_uyb5cIiKA-32">
          <mxGeometry width="30" height="30" as="geometry" />
        </mxCell>
        <mxCell id="V0HynzZhf9_uyb5cIiKA-34" value="staffID int NOT NULL" style="shape=partialRectangle;overflow=hidden;connectable=0;fillColor=none;top=0;left=0;bottom=0;right=0;align=left;spacingLeft=6;" vertex="1" parent="V0HynzZhf9_uyb5cIiKA-32">
          <mxGeometry x="30" width="220" height="30" as="geometry" />
        </mxCell>
        <mxCell id="V0HynzZhf9_uyb5cIiKA-35" value="" style="shape=partialRectangle;collapsible=0;dropTarget=0;pointerEvents=0;fillColor=none;points=[[0,0.5],[1,0.5]];portConstraint=eastwest;top=0;left=0;right=0;bottom=0;" vertex="1" parent="V0HynzZhf9_uyb5cIiKA-1">
          <mxGeometry y="360" width="250" height="30" as="geometry" />
        </mxCell>
        <mxCell id="V0HynzZhf9_uyb5cIiKA-36" value="FK" style="shape=partialRectangle;overflow=hidden;connectable=0;fillColor=none;top=0;left=0;bottom=0;right=0;" vertex="1" parent="V0HynzZhf9_uyb5cIiKA-35">
          <mxGeometry width="30" height="30" as="geometry" />
        </mxCell>
        <mxCell id="V0HynzZhf9_uyb5cIiKA-37" value="paitentPrescriptID int NOT NULL" style="shape=partialRectangle;overflow=hidden;connectable=0;fillColor=none;top=0;left=0;bottom=0;right=0;align=left;spacingLeft=6;" vertex="1" parent="V0HynzZhf9_uyb5cIiKA-35">
          <mxGeometry x="30" width="220" height="30" as="geometry" />
        </mxCell>
        <mxCell id="V0HynzZhf9_uyb5cIiKA-41" value="" style="shape=partialRectangle;collapsible=0;dropTarget=0;pointerEvents=0;fillColor=none;points=[[0,0.5],[1,0.5]];portConstraint=eastwest;top=0;left=0;right=0;bottom=0;" vertex="1" parent="V0HynzZhf9_uyb5cIiKA-1">
          <mxGeometry y="390" width="250" height="30" as="geometry" />
        </mxCell>
        <mxCell id="V0HynzZhf9_uyb5cIiKA-42" value="FK" style="shape=partialRectangle;overflow=hidden;connectable=0;fillColor=none;top=0;left=0;bottom=0;right=0;" vertex="1" parent="V0HynzZhf9_uyb5cIiKA-41">
          <mxGeometry width="30" height="30" as="geometry" />
        </mxCell>
        <mxCell id="V0HynzZhf9_uyb5cIiKA-43" value="noteID int NOT NULL" style="shape=partialRectangle;overflow=hidden;connectable=0;fillColor=none;top=0;left=0;bottom=0;right=0;align=left;spacingLeft=6;" vertex="1" parent="V0HynzZhf9_uyb5cIiKA-41">
          <mxGeometry x="30" width="220" height="30" as="geometry" />
        </mxCell>
        <mxCell id="V0HynzZhf9_uyb5cIiKA-66" value="" style="edgeStyle=orthogonalEdgeStyle;fontSize=12;html=1;endArrow=ERmandOne;entryX=0;entryY=0.5;entryDx=0;entryDy=0;exitX=1;exitY=0.5;exitDx=0;exitDy=0;rounded=0;" edge="1" parent="1" source="V0HynzZhf9_uyb5cIiKA-35" target="V0HynzZhf9_uyb5cIiKA-112">
          <mxGeometry width="100" height="100" relative="1" as="geometry">
            <mxPoint x="50" y="620" as="sourcePoint" />
            <mxPoint x="150" y="520" as="targetPoint" />
            <Array as="points">
              <mxPoint x="280" y="420" />
              <mxPoint x="425" y="420" />
            </Array>
          </mxGeometry>
        </mxCell>
        <mxCell id="V0HynzZhf9_uyb5cIiKA-67" value="" style="edgeStyle=orthogonalEdgeStyle;fontSize=12;html=1;endArrow=ERmandOne;rounded=0;entryX=0;entryY=0.5;entryDx=0;entryDy=0;exitX=1;exitY=0.5;exitDx=0;exitDy=0;" edge="1" parent="1" source="V0HynzZhf9_uyb5cIiKA-115" target="V0HynzZhf9_uyb5cIiKA-102">
          <mxGeometry width="100" height="100" relative="1" as="geometry">
            <mxPoint x="480" y="550" as="sourcePoint" />
            <mxPoint x="580" y="450" as="targetPoint" />
          </mxGeometry>
        </mxCell>
        <mxCell id="V0HynzZhf9_uyb5cIiKA-68" value="Medical Center" style="shape=table;startSize=30;container=1;collapsible=1;childLayout=tableLayout;fixedRows=1;rowLines=0;fontStyle=1;align=center;resizeLast=1;" vertex="1" parent="1">
          <mxGeometry x="850" y="40" width="250" height="340" as="geometry" />
        </mxCell>
        <mxCell id="V0HynzZhf9_uyb5cIiKA-69" value="" style="shape=partialRectangle;collapsible=0;dropTarget=0;pointerEvents=0;fillColor=none;points=[[0,0.5],[1,0.5]];portConstraint=eastwest;top=0;left=0;right=0;bottom=1;" vertex="1" parent="V0HynzZhf9_uyb5cIiKA-68">
          <mxGeometry y="30" width="250" height="30" as="geometry" />
        </mxCell>
        <mxCell id="V0HynzZhf9_uyb5cIiKA-70" value="PK" style="shape=partialRectangle;overflow=hidden;connectable=0;fillColor=none;top=0;left=0;bottom=0;right=0;fontStyle=1;" vertex="1" parent="V0HynzZhf9_uyb5cIiKA-69">
          <mxGeometry width="30" height="30" as="geometry" />
        </mxCell>
        <mxCell id="V0HynzZhf9_uyb5cIiKA-71" value="centerID int  NOT NULL " style="shape=partialRectangle;overflow=hidden;connectable=0;fillColor=none;top=0;left=0;bottom=0;right=0;align=left;spacingLeft=6;fontStyle=5;" vertex="1" parent="V0HynzZhf9_uyb5cIiKA-69">
          <mxGeometry x="30" width="220" height="30" as="geometry" />
        </mxCell>
        <mxCell id="V0HynzZhf9_uyb5cIiKA-72" value="" style="shape=partialRectangle;collapsible=0;dropTarget=0;pointerEvents=0;fillColor=none;points=[[0,0.5],[1,0.5]];portConstraint=eastwest;top=0;left=0;right=0;bottom=0;" vertex="1" parent="V0HynzZhf9_uyb5cIiKA-68">
          <mxGeometry y="60" width="250" height="30" as="geometry" />
        </mxCell>
        <mxCell id="V0HynzZhf9_uyb5cIiKA-73" value="" style="shape=partialRectangle;overflow=hidden;connectable=0;fillColor=none;top=0;left=0;bottom=0;right=0;" vertex="1" parent="V0HynzZhf9_uyb5cIiKA-72">
          <mxGeometry width="30" height="30" as="geometry" />
        </mxCell>
        <mxCell id="V0HynzZhf9_uyb5cIiKA-74" value="FName Char(20)" style="shape=partialRectangle;overflow=hidden;connectable=0;fillColor=none;top=0;left=0;bottom=0;right=0;align=left;spacingLeft=6;" vertex="1" parent="V0HynzZhf9_uyb5cIiKA-72">
          <mxGeometry x="30" width="220" height="30" as="geometry" />
        </mxCell>
        <mxCell id="V0HynzZhf9_uyb5cIiKA-75" value="" style="shape=partialRectangle;collapsible=0;dropTarget=0;pointerEvents=0;fillColor=none;points=[[0,0.5],[1,0.5]];portConstraint=eastwest;top=0;left=0;right=0;bottom=0;" vertex="1" parent="V0HynzZhf9_uyb5cIiKA-68">
          <mxGeometry y="90" width="250" height="30" as="geometry" />
        </mxCell>
        <mxCell id="V0HynzZhf9_uyb5cIiKA-76" value="" style="shape=partialRectangle;overflow=hidden;connectable=0;fillColor=none;top=0;left=0;bottom=0;right=0;" vertex="1" parent="V0HynzZhf9_uyb5cIiKA-75">
          <mxGeometry width="30" height="30" as="geometry" />
        </mxCell>
        <mxCell id="V0HynzZhf9_uyb5cIiKA-77" value="LName Char(20)" style="shape=partialRectangle;overflow=hidden;connectable=0;fillColor=none;top=0;left=0;bottom=0;right=0;align=left;spacingLeft=6;" vertex="1" parent="V0HynzZhf9_uyb5cIiKA-75">
          <mxGeometry x="30" width="220" height="30" as="geometry" />
        </mxCell>
        <mxCell id="V0HynzZhf9_uyb5cIiKA-78" value="" style="shape=partialRectangle;collapsible=0;dropTarget=0;pointerEvents=0;fillColor=none;points=[[0,0.5],[1,0.5]];portConstraint=eastwest;top=0;left=0;right=0;bottom=0;" vertex="1" parent="V0HynzZhf9_uyb5cIiKA-68">
          <mxGeometry y="120" width="250" height="30" as="geometry" />
        </mxCell>
        <mxCell id="V0HynzZhf9_uyb5cIiKA-79" value="" style="shape=partialRectangle;overflow=hidden;connectable=0;fillColor=none;top=0;left=0;bottom=0;right=0;" vertex="1" parent="V0HynzZhf9_uyb5cIiKA-78">
          <mxGeometry width="30" height="30" as="geometry" />
        </mxCell>
        <mxCell id="V0HynzZhf9_uyb5cIiKA-80" value="Age Int" style="shape=partialRectangle;overflow=hidden;connectable=0;fillColor=none;top=0;left=0;bottom=0;right=0;align=left;spacingLeft=6;" vertex="1" parent="V0HynzZhf9_uyb5cIiKA-78">
          <mxGeometry x="30" width="220" height="30" as="geometry" />
        </mxCell>
        <mxCell id="V0HynzZhf9_uyb5cIiKA-81" value="" style="shape=partialRectangle;collapsible=0;dropTarget=0;pointerEvents=0;fillColor=none;points=[[0,0.5],[1,0.5]];portConstraint=eastwest;top=0;left=0;right=0;bottom=0;" vertex="1" parent="V0HynzZhf9_uyb5cIiKA-68">
          <mxGeometry y="150" width="250" height="30" as="geometry" />
        </mxCell>
        <mxCell id="V0HynzZhf9_uyb5cIiKA-82" value="" style="shape=partialRectangle;overflow=hidden;connectable=0;fillColor=none;top=0;left=0;bottom=0;right=0;" vertex="1" parent="V0HynzZhf9_uyb5cIiKA-81">
          <mxGeometry width="30" height="30" as="geometry" />
        </mxCell>
        <mxCell id="V0HynzZhf9_uyb5cIiKA-83" value="Gender Char(1)" style="shape=partialRectangle;overflow=hidden;connectable=0;fillColor=none;top=0;left=0;bottom=0;right=0;align=left;spacingLeft=6;" vertex="1" parent="V0HynzZhf9_uyb5cIiKA-81">
          <mxGeometry x="30" width="220" height="30" as="geometry" />
        </mxCell>
        <mxCell id="V0HynzZhf9_uyb5cIiKA-84" value="" style="shape=partialRectangle;collapsible=0;dropTarget=0;pointerEvents=0;fillColor=none;points=[[0,0.5],[1,0.5]];portConstraint=eastwest;top=0;left=0;right=0;bottom=0;" vertex="1" parent="V0HynzZhf9_uyb5cIiKA-68">
          <mxGeometry y="180" width="250" height="30" as="geometry" />
        </mxCell>
        <mxCell id="V0HynzZhf9_uyb5cIiKA-85" value="" style="shape=partialRectangle;overflow=hidden;connectable=0;fillColor=none;top=0;left=0;bottom=0;right=0;" vertex="1" parent="V0HynzZhf9_uyb5cIiKA-84">
          <mxGeometry width="30" height="30" as="geometry" />
        </mxCell>
        <mxCell id="V0HynzZhf9_uyb5cIiKA-86" value="PhoneNumber Int" style="shape=partialRectangle;overflow=hidden;connectable=0;fillColor=none;top=0;left=0;bottom=0;right=0;align=left;spacingLeft=6;" vertex="1" parent="V0HynzZhf9_uyb5cIiKA-84">
          <mxGeometry x="30" width="220" height="30" as="geometry" />
        </mxCell>
        <mxCell id="V0HynzZhf9_uyb5cIiKA-87" value="" style="shape=partialRectangle;collapsible=0;dropTarget=0;pointerEvents=0;fillColor=none;points=[[0,0.5],[1,0.5]];portConstraint=eastwest;top=0;left=0;right=0;bottom=0;" vertex="1" parent="V0HynzZhf9_uyb5cIiKA-68">
          <mxGeometry y="210" width="250" height="30" as="geometry" />
        </mxCell>
        <mxCell id="V0HynzZhf9_uyb5cIiKA-88" value="" style="shape=partialRectangle;overflow=hidden;connectable=0;fillColor=none;top=0;left=0;bottom=0;right=0;" vertex="1" parent="V0HynzZhf9_uyb5cIiKA-87">
          <mxGeometry width="30" height="30" as="geometry" />
        </mxCell>
        <mxCell id="V0HynzZhf9_uyb5cIiKA-89" value="EmailAddress Char(100)" style="shape=partialRectangle;overflow=hidden;connectable=0;fillColor=none;top=0;left=0;bottom=0;right=0;align=left;spacingLeft=6;" vertex="1" parent="V0HynzZhf9_uyb5cIiKA-87">
          <mxGeometry x="30" width="220" height="30" as="geometry" />
        </mxCell>
        <mxCell id="V0HynzZhf9_uyb5cIiKA-90" value="" style="shape=partialRectangle;collapsible=0;dropTarget=0;pointerEvents=0;fillColor=none;points=[[0,0.5],[1,0.5]];portConstraint=eastwest;top=0;left=0;right=0;bottom=0;" vertex="1" parent="V0HynzZhf9_uyb5cIiKA-68">
          <mxGeometry y="240" width="250" height="30" as="geometry" />
        </mxCell>
        <mxCell id="V0HynzZhf9_uyb5cIiKA-91" value="" style="shape=partialRectangle;overflow=hidden;connectable=0;fillColor=none;top=0;left=0;bottom=0;right=0;" vertex="1" parent="V0HynzZhf9_uyb5cIiKA-90">
          <mxGeometry width="30" height="30" as="geometry" />
        </mxCell>
        <mxCell id="V0HynzZhf9_uyb5cIiKA-92" value="Address Char(30)" style="shape=partialRectangle;overflow=hidden;connectable=0;fillColor=none;top=0;left=0;bottom=0;right=0;align=left;spacingLeft=6;" vertex="1" parent="V0HynzZhf9_uyb5cIiKA-90">
          <mxGeometry x="30" width="220" height="30" as="geometry" />
        </mxCell>
        <mxCell id="V0HynzZhf9_uyb5cIiKA-93" value="" style="shape=partialRectangle;collapsible=0;dropTarget=0;pointerEvents=0;fillColor=none;points=[[0,0.5],[1,0.5]];portConstraint=eastwest;top=0;left=0;right=0;bottom=0;" vertex="1" parent="V0HynzZhf9_uyb5cIiKA-68">
          <mxGeometry y="270" width="250" height="30" as="geometry" />
        </mxCell>
        <mxCell id="V0HynzZhf9_uyb5cIiKA-94" value="" style="shape=partialRectangle;overflow=hidden;connectable=0;fillColor=none;top=0;left=0;bottom=0;right=0;" vertex="1" parent="V0HynzZhf9_uyb5cIiKA-93">
          <mxGeometry width="30" height="30" as="geometry" />
        </mxCell>
        <mxCell id="V0HynzZhf9_uyb5cIiKA-95" value="Region / State Char(30)" style="shape=partialRectangle;overflow=hidden;connectable=0;fillColor=none;top=0;left=0;bottom=0;right=0;align=left;spacingLeft=6;" vertex="1" parent="V0HynzZhf9_uyb5cIiKA-93">
          <mxGeometry x="30" width="220" height="30" as="geometry" />
        </mxCell>
        <mxCell id="V0HynzZhf9_uyb5cIiKA-96" value="" style="shape=partialRectangle;collapsible=0;dropTarget=0;pointerEvents=0;fillColor=none;points=[[0,0.5],[1,0.5]];portConstraint=eastwest;top=0;left=0;right=0;bottom=0;" vertex="1" parent="V0HynzZhf9_uyb5cIiKA-68">
          <mxGeometry y="300" width="250" height="30" as="geometry" />
        </mxCell>
        <mxCell id="V0HynzZhf9_uyb5cIiKA-97" value="" style="shape=partialRectangle;overflow=hidden;connectable=0;fillColor=none;top=0;left=0;bottom=0;right=0;" vertex="1" parent="V0HynzZhf9_uyb5cIiKA-96">
          <mxGeometry width="30" height="30" as="geometry" />
        </mxCell>
        <mxCell id="V0HynzZhf9_uyb5cIiKA-98" value="Country Char(30)" style="shape=partialRectangle;overflow=hidden;connectable=0;fillColor=none;top=0;left=0;bottom=0;right=0;align=left;spacingLeft=6;" vertex="1" parent="V0HynzZhf9_uyb5cIiKA-96">
          <mxGeometry x="30" width="220" height="30" as="geometry" />
        </mxCell>
        <mxCell id="V0HynzZhf9_uyb5cIiKA-99" value="" style="edgeStyle=orthogonalEdgeStyle;fontSize=12;html=1;endArrow=ERmandOne;rounded=0;exitX=1;exitY=0.5;exitDx=0;exitDy=0;entryX=0;entryY=0.5;entryDx=0;entryDy=0;" edge="1" parent="1" source="V0HynzZhf9_uyb5cIiKA-275" target="V0HynzZhf9_uyb5cIiKA-69">
          <mxGeometry width="100" height="100" relative="1" as="geometry">
            <mxPoint x="680" y="280" as="sourcePoint" />
            <mxPoint x="780" y="180" as="targetPoint" />
          </mxGeometry>
        </mxCell>
        <mxCell id="V0HynzZhf9_uyb5cIiKA-101" value="Prescription" style="shape=table;startSize=30;container=1;collapsible=1;childLayout=tableLayout;fixedRows=1;rowLines=0;fontStyle=1;align=center;resizeLast=1;" vertex="1" parent="1">
          <mxGeometry x="780" y="460" width="250" height="130" as="geometry" />
        </mxCell>
        <mxCell id="V0HynzZhf9_uyb5cIiKA-102" value="" style="shape=partialRectangle;collapsible=0;dropTarget=0;pointerEvents=0;fillColor=none;points=[[0,0.5],[1,0.5]];portConstraint=eastwest;top=0;left=0;right=0;bottom=1;" vertex="1" parent="V0HynzZhf9_uyb5cIiKA-101">
          <mxGeometry y="30" width="250" height="30" as="geometry" />
        </mxCell>
        <mxCell id="V0HynzZhf9_uyb5cIiKA-103" value="PK" style="shape=partialRectangle;overflow=hidden;connectable=0;fillColor=none;top=0;left=0;bottom=0;right=0;fontStyle=1;" vertex="1" parent="V0HynzZhf9_uyb5cIiKA-102">
          <mxGeometry width="30" height="30" as="geometry" />
        </mxCell>
        <mxCell id="V0HynzZhf9_uyb5cIiKA-104" value=" prescriptionID int NOT NULL " style="shape=partialRectangle;overflow=hidden;connectable=0;fillColor=none;top=0;left=0;bottom=0;right=0;align=left;spacingLeft=6;fontStyle=5;" vertex="1" parent="V0HynzZhf9_uyb5cIiKA-102">
          <mxGeometry x="30" width="220" height="30" as="geometry" />
        </mxCell>
        <mxCell id="V0HynzZhf9_uyb5cIiKA-105" value="" style="shape=partialRectangle;collapsible=0;dropTarget=0;pointerEvents=0;fillColor=none;points=[[0,0.5],[1,0.5]];portConstraint=eastwest;top=0;left=0;right=0;bottom=0;" vertex="1" parent="V0HynzZhf9_uyb5cIiKA-101">
          <mxGeometry y="60" width="250" height="30" as="geometry" />
        </mxCell>
        <mxCell id="V0HynzZhf9_uyb5cIiKA-106" value="" style="shape=partialRectangle;overflow=hidden;connectable=0;fillColor=none;top=0;left=0;bottom=0;right=0;" vertex="1" parent="V0HynzZhf9_uyb5cIiKA-105">
          <mxGeometry width="30" height="30" as="geometry" />
        </mxCell>
        <mxCell id="V0HynzZhf9_uyb5cIiKA-107" value="name Char(50)" style="shape=partialRectangle;overflow=hidden;connectable=0;fillColor=none;top=0;left=0;bottom=0;right=0;align=left;spacingLeft=6;" vertex="1" parent="V0HynzZhf9_uyb5cIiKA-105">
          <mxGeometry x="30" width="220" height="30" as="geometry" />
        </mxCell>
        <mxCell id="V0HynzZhf9_uyb5cIiKA-108" value="" style="shape=partialRectangle;collapsible=0;dropTarget=0;pointerEvents=0;fillColor=none;points=[[0,0.5],[1,0.5]];portConstraint=eastwest;top=0;left=0;right=0;bottom=0;" vertex="1" parent="V0HynzZhf9_uyb5cIiKA-101">
          <mxGeometry y="90" width="250" height="30" as="geometry" />
        </mxCell>
        <mxCell id="V0HynzZhf9_uyb5cIiKA-109" value="" style="shape=partialRectangle;overflow=hidden;connectable=0;fillColor=none;top=0;left=0;bottom=0;right=0;" vertex="1" parent="V0HynzZhf9_uyb5cIiKA-108">
          <mxGeometry width="30" height="30" as="geometry" />
        </mxCell>
        <mxCell id="V0HynzZhf9_uyb5cIiKA-110" value="description Char(500)" style="shape=partialRectangle;overflow=hidden;connectable=0;fillColor=none;top=0;left=0;bottom=0;right=0;align=left;spacingLeft=6;" vertex="1" parent="V0HynzZhf9_uyb5cIiKA-108">
          <mxGeometry x="30" width="220" height="30" as="geometry" />
        </mxCell>
        <mxCell id="V0HynzZhf9_uyb5cIiKA-111" value="PaitentPrescription" style="shape=table;startSize=30;container=1;collapsible=1;childLayout=tableLayout;fixedRows=1;rowLines=0;fontStyle=1;align=center;resizeLast=1;" vertex="1" parent="1">
          <mxGeometry x="450" y="380" width="250" height="130" as="geometry" />
        </mxCell>
        <mxCell id="V0HynzZhf9_uyb5cIiKA-112" value="" style="shape=partialRectangle;collapsible=0;dropTarget=0;pointerEvents=0;fillColor=none;points=[[0,0.5],[1,0.5]];portConstraint=eastwest;top=0;left=0;right=0;bottom=1;" vertex="1" parent="V0HynzZhf9_uyb5cIiKA-111">
          <mxGeometry y="30" width="250" height="30" as="geometry" />
        </mxCell>
        <mxCell id="V0HynzZhf9_uyb5cIiKA-113" value="PK" style="shape=partialRectangle;overflow=hidden;connectable=0;fillColor=none;top=0;left=0;bottom=0;right=0;fontStyle=1;" vertex="1" parent="V0HynzZhf9_uyb5cIiKA-112">
          <mxGeometry width="30" height="30" as="geometry" />
        </mxCell>
        <mxCell id="V0HynzZhf9_uyb5cIiKA-114" value="paitentPrescriptID int NOT NULL " style="shape=partialRectangle;overflow=hidden;connectable=0;fillColor=none;top=0;left=0;bottom=0;right=0;align=left;spacingLeft=6;fontStyle=5;" vertex="1" parent="V0HynzZhf9_uyb5cIiKA-112">
          <mxGeometry x="30" width="220" height="30" as="geometry" />
        </mxCell>
        <mxCell id="V0HynzZhf9_uyb5cIiKA-115" value="" style="shape=partialRectangle;collapsible=0;dropTarget=0;pointerEvents=0;fillColor=none;points=[[0,0.5],[1,0.5]];portConstraint=eastwest;top=0;left=0;right=0;bottom=0;" vertex="1" parent="V0HynzZhf9_uyb5cIiKA-111">
          <mxGeometry y="60" width="250" height="30" as="geometry" />
        </mxCell>
        <mxCell id="V0HynzZhf9_uyb5cIiKA-116" value="FK" style="shape=partialRectangle;overflow=hidden;connectable=0;fillColor=none;top=0;left=0;bottom=0;right=0;" vertex="1" parent="V0HynzZhf9_uyb5cIiKA-115">
          <mxGeometry width="30" height="30" as="geometry" />
        </mxCell>
        <mxCell id="V0HynzZhf9_uyb5cIiKA-117" value="prescriptionID int NOT NULL" style="shape=partialRectangle;overflow=hidden;connectable=0;fillColor=none;top=0;left=0;bottom=0;right=0;align=left;spacingLeft=6;" vertex="1" parent="V0HynzZhf9_uyb5cIiKA-115">
          <mxGeometry x="30" width="220" height="30" as="geometry" />
        </mxCell>
        <mxCell id="V0HynzZhf9_uyb5cIiKA-118" value="" style="shape=partialRectangle;collapsible=0;dropTarget=0;pointerEvents=0;fillColor=none;points=[[0,0.5],[1,0.5]];portConstraint=eastwest;top=0;left=0;right=0;bottom=0;" vertex="1" parent="V0HynzZhf9_uyb5cIiKA-111">
          <mxGeometry y="90" width="250" height="30" as="geometry" />
        </mxCell>
        <mxCell id="V0HynzZhf9_uyb5cIiKA-119" value="" style="shape=partialRectangle;overflow=hidden;connectable=0;fillColor=none;top=0;left=0;bottom=0;right=0;" vertex="1" parent="V0HynzZhf9_uyb5cIiKA-118">
          <mxGeometry width="30" height="30" as="geometry" />
        </mxCell>
        <mxCell id="V0HynzZhf9_uyb5cIiKA-120" value="Dosage Varchar(20)" style="shape=partialRectangle;overflow=hidden;connectable=0;fillColor=none;top=0;left=0;bottom=0;right=0;align=left;spacingLeft=6;" vertex="1" parent="V0HynzZhf9_uyb5cIiKA-118">
          <mxGeometry x="30" width="220" height="30" as="geometry" />
        </mxCell>
        <mxCell id="V0HynzZhf9_uyb5cIiKA-145" value="Notes" style="shape=table;startSize=30;container=1;collapsible=1;childLayout=tableLayout;fixedRows=1;rowLines=0;fontStyle=1;align=center;resizeLast=1;" vertex="1" parent="1">
          <mxGeometry x="-310" y="390" width="250" height="130" as="geometry" />
        </mxCell>
        <mxCell id="V0HynzZhf9_uyb5cIiKA-146" value="" style="shape=partialRectangle;collapsible=0;dropTarget=0;pointerEvents=0;fillColor=none;points=[[0,0.5],[1,0.5]];portConstraint=eastwest;top=0;left=0;right=0;bottom=1;" vertex="1" parent="V0HynzZhf9_uyb5cIiKA-145">
          <mxGeometry y="30" width="250" height="30" as="geometry" />
        </mxCell>
        <mxCell id="V0HynzZhf9_uyb5cIiKA-147" value="PK" style="shape=partialRectangle;overflow=hidden;connectable=0;fillColor=none;top=0;left=0;bottom=0;right=0;fontStyle=1;" vertex="1" parent="V0HynzZhf9_uyb5cIiKA-146">
          <mxGeometry width="30" height="30" as="geometry" />
        </mxCell>
        <mxCell id="V0HynzZhf9_uyb5cIiKA-148" value="noteID int NOT NULL " style="shape=partialRectangle;overflow=hidden;connectable=0;fillColor=none;top=0;left=0;bottom=0;right=0;align=left;spacingLeft=6;fontStyle=5;" vertex="1" parent="V0HynzZhf9_uyb5cIiKA-146">
          <mxGeometry x="30" width="220" height="30" as="geometry" />
        </mxCell>
        <mxCell id="V0HynzZhf9_uyb5cIiKA-152" value="" style="shape=partialRectangle;collapsible=0;dropTarget=0;pointerEvents=0;fillColor=none;points=[[0,0.5],[1,0.5]];portConstraint=eastwest;top=0;left=0;right=0;bottom=0;" vertex="1" parent="V0HynzZhf9_uyb5cIiKA-145">
          <mxGeometry y="60" width="250" height="30" as="geometry" />
        </mxCell>
        <mxCell id="V0HynzZhf9_uyb5cIiKA-153" value="FK" style="shape=partialRectangle;overflow=hidden;connectable=0;fillColor=none;top=0;left=0;bottom=0;right=0;" vertex="1" parent="V0HynzZhf9_uyb5cIiKA-152">
          <mxGeometry width="30" height="30" as="geometry" />
        </mxCell>
        <mxCell id="V0HynzZhf9_uyb5cIiKA-154" value="staffID int NOT NULL" style="shape=partialRectangle;overflow=hidden;connectable=0;fillColor=none;top=0;left=0;bottom=0;right=0;align=left;spacingLeft=6;" vertex="1" parent="V0HynzZhf9_uyb5cIiKA-152">
          <mxGeometry x="30" width="220" height="30" as="geometry" />
        </mxCell>
        <mxCell id="V0HynzZhf9_uyb5cIiKA-155" value="" style="shape=partialRectangle;collapsible=0;dropTarget=0;pointerEvents=0;fillColor=none;points=[[0,0.5],[1,0.5]];portConstraint=eastwest;top=0;left=0;right=0;bottom=0;" vertex="1" parent="V0HynzZhf9_uyb5cIiKA-145">
          <mxGeometry y="90" width="250" height="30" as="geometry" />
        </mxCell>
        <mxCell id="V0HynzZhf9_uyb5cIiKA-156" value="" style="shape=partialRectangle;overflow=hidden;connectable=0;fillColor=none;top=0;left=0;bottom=0;right=0;" vertex="1" parent="V0HynzZhf9_uyb5cIiKA-155">
          <mxGeometry width="30" height="30" as="geometry" />
        </mxCell>
        <mxCell id="V0HynzZhf9_uyb5cIiKA-157" value="notes Varchar(500)" style="shape=partialRectangle;overflow=hidden;connectable=0;fillColor=none;top=0;left=0;bottom=0;right=0;align=left;spacingLeft=6;" vertex="1" parent="V0HynzZhf9_uyb5cIiKA-155">
          <mxGeometry x="30" width="220" height="30" as="geometry" />
        </mxCell>
        <mxCell id="V0HynzZhf9_uyb5cIiKA-158" value="" style="edgeStyle=orthogonalEdgeStyle;fontSize=12;html=1;endArrow=ERoneToMany;exitX=0;exitY=0.5;exitDx=0;exitDy=0;entryX=1;entryY=0.5;entryDx=0;entryDy=0;rounded=0;" edge="1" parent="1" source="V0HynzZhf9_uyb5cIiKA-41" target="V0HynzZhf9_uyb5cIiKA-146">
          <mxGeometry width="100" height="100" relative="1" as="geometry">
            <mxPoint x="-190" y="360" as="sourcePoint" />
            <mxPoint x="-90" y="260" as="targetPoint" />
          </mxGeometry>
        </mxCell>
        <mxCell id="V0HynzZhf9_uyb5cIiKA-256" value="Staff" style="shape=table;startSize=30;container=1;collapsible=1;childLayout=tableLayout;fixedRows=1;rowLines=0;fontStyle=1;align=center;resizeLast=1;" vertex="1" parent="1">
          <mxGeometry x="425" y="30" width="200" height="280" as="geometry" />
        </mxCell>
        <mxCell id="V0HynzZhf9_uyb5cIiKA-257" value="" style="shape=partialRectangle;collapsible=0;dropTarget=0;pointerEvents=0;fillColor=none;points=[[0,0.5],[1,0.5]];portConstraint=eastwest;top=0;left=0;right=0;bottom=1;" vertex="1" parent="V0HynzZhf9_uyb5cIiKA-256">
          <mxGeometry y="30" width="200" height="30" as="geometry" />
        </mxCell>
        <mxCell id="V0HynzZhf9_uyb5cIiKA-258" value="PK" style="shape=partialRectangle;overflow=hidden;connectable=0;fillColor=none;top=0;left=0;bottom=0;right=0;fontStyle=1;" vertex="1" parent="V0HynzZhf9_uyb5cIiKA-257">
          <mxGeometry width="30" height="30" as="geometry" />
        </mxCell>
        <mxCell id="V0HynzZhf9_uyb5cIiKA-259" value="staffID int  NOT NULL " style="shape=partialRectangle;overflow=hidden;connectable=0;fillColor=none;top=0;left=0;bottom=0;right=0;align=left;spacingLeft=6;fontStyle=5;" vertex="1" parent="V0HynzZhf9_uyb5cIiKA-257">
          <mxGeometry x="30" width="170" height="30" as="geometry" />
        </mxCell>
        <mxCell id="V0HynzZhf9_uyb5cIiKA-260" value="" style="shape=partialRectangle;collapsible=0;dropTarget=0;pointerEvents=0;fillColor=none;points=[[0,0.5],[1,0.5]];portConstraint=eastwest;top=0;left=0;right=0;bottom=0;" vertex="1" parent="V0HynzZhf9_uyb5cIiKA-256">
          <mxGeometry y="60" width="200" height="30" as="geometry" />
        </mxCell>
        <mxCell id="V0HynzZhf9_uyb5cIiKA-261" value="" style="shape=partialRectangle;overflow=hidden;connectable=0;fillColor=none;top=0;left=0;bottom=0;right=0;" vertex="1" parent="V0HynzZhf9_uyb5cIiKA-260">
          <mxGeometry width="30" height="30" as="geometry" />
        </mxCell>
        <mxCell id="V0HynzZhf9_uyb5cIiKA-262" value="FName Char(20)" style="shape=partialRectangle;overflow=hidden;connectable=0;fillColor=none;top=0;left=0;bottom=0;right=0;align=left;spacingLeft=6;" vertex="1" parent="V0HynzZhf9_uyb5cIiKA-260">
          <mxGeometry x="30" width="170" height="30" as="geometry" />
        </mxCell>
        <mxCell id="V0HynzZhf9_uyb5cIiKA-263" value="" style="shape=partialRectangle;collapsible=0;dropTarget=0;pointerEvents=0;fillColor=none;points=[[0,0.5],[1,0.5]];portConstraint=eastwest;top=0;left=0;right=0;bottom=0;" vertex="1" parent="V0HynzZhf9_uyb5cIiKA-256">
          <mxGeometry y="90" width="200" height="30" as="geometry" />
        </mxCell>
        <mxCell id="V0HynzZhf9_uyb5cIiKA-264" value="" style="shape=partialRectangle;overflow=hidden;connectable=0;fillColor=none;top=0;left=0;bottom=0;right=0;" vertex="1" parent="V0HynzZhf9_uyb5cIiKA-263">
          <mxGeometry width="30" height="30" as="geometry" />
        </mxCell>
        <mxCell id="V0HynzZhf9_uyb5cIiKA-265" value="LName Char(20)" style="shape=partialRectangle;overflow=hidden;connectable=0;fillColor=none;top=0;left=0;bottom=0;right=0;align=left;spacingLeft=6;" vertex="1" parent="V0HynzZhf9_uyb5cIiKA-263">
          <mxGeometry x="30" width="170" height="30" as="geometry" />
        </mxCell>
        <mxCell id="V0HynzZhf9_uyb5cIiKA-266" value="" style="shape=partialRectangle;collapsible=0;dropTarget=0;pointerEvents=0;fillColor=none;points=[[0,0.5],[1,0.5]];portConstraint=eastwest;top=0;left=0;right=0;bottom=0;" vertex="1" parent="V0HynzZhf9_uyb5cIiKA-256">
          <mxGeometry y="120" width="200" height="30" as="geometry" />
        </mxCell>
        <mxCell id="V0HynzZhf9_uyb5cIiKA-267" value="" style="shape=partialRectangle;overflow=hidden;connectable=0;fillColor=none;top=0;left=0;bottom=0;right=0;" vertex="1" parent="V0HynzZhf9_uyb5cIiKA-266">
          <mxGeometry width="30" height="30" as="geometry" />
        </mxCell>
        <mxCell id="V0HynzZhf9_uyb5cIiKA-268" value="Gender Char(1)" style="shape=partialRectangle;overflow=hidden;connectable=0;fillColor=none;top=0;left=0;bottom=0;right=0;align=left;spacingLeft=6;" vertex="1" parent="V0HynzZhf9_uyb5cIiKA-266">
          <mxGeometry x="30" width="170" height="30" as="geometry" />
        </mxCell>
        <mxCell id="V0HynzZhf9_uyb5cIiKA-269" value="" style="shape=partialRectangle;collapsible=0;dropTarget=0;pointerEvents=0;fillColor=none;points=[[0,0.5],[1,0.5]];portConstraint=eastwest;top=0;left=0;right=0;bottom=0;" vertex="1" parent="V0HynzZhf9_uyb5cIiKA-256">
          <mxGeometry y="150" width="200" height="30" as="geometry" />
        </mxCell>
        <mxCell id="V0HynzZhf9_uyb5cIiKA-270" value="" style="shape=partialRectangle;overflow=hidden;connectable=0;fillColor=none;top=0;left=0;bottom=0;right=0;" vertex="1" parent="V0HynzZhf9_uyb5cIiKA-269">
          <mxGeometry width="30" height="30" as="geometry" />
        </mxCell>
        <mxCell id="V0HynzZhf9_uyb5cIiKA-271" value="PhoneNumber Int" style="shape=partialRectangle;overflow=hidden;connectable=0;fillColor=none;top=0;left=0;bottom=0;right=0;align=left;spacingLeft=6;" vertex="1" parent="V0HynzZhf9_uyb5cIiKA-269">
          <mxGeometry x="30" width="170" height="30" as="geometry" />
        </mxCell>
        <mxCell id="V0HynzZhf9_uyb5cIiKA-272" value="" style="shape=partialRectangle;collapsible=0;dropTarget=0;pointerEvents=0;fillColor=none;points=[[0,0.5],[1,0.5]];portConstraint=eastwest;top=0;left=0;right=0;bottom=0;" vertex="1" parent="V0HynzZhf9_uyb5cIiKA-256">
          <mxGeometry y="180" width="200" height="30" as="geometry" />
        </mxCell>
        <mxCell id="V0HynzZhf9_uyb5cIiKA-273" value="" style="shape=partialRectangle;overflow=hidden;connectable=0;fillColor=none;top=0;left=0;bottom=0;right=0;" vertex="1" parent="V0HynzZhf9_uyb5cIiKA-272">
          <mxGeometry width="30" height="30" as="geometry" />
        </mxCell>
        <mxCell id="V0HynzZhf9_uyb5cIiKA-274" value="EmailAddress Char(100)" style="shape=partialRectangle;overflow=hidden;connectable=0;fillColor=none;top=0;left=0;bottom=0;right=0;align=left;spacingLeft=6;" vertex="1" parent="V0HynzZhf9_uyb5cIiKA-272">
          <mxGeometry x="30" width="170" height="30" as="geometry" />
        </mxCell>
        <mxCell id="V0HynzZhf9_uyb5cIiKA-275" value="" style="shape=partialRectangle;collapsible=0;dropTarget=0;pointerEvents=0;fillColor=none;points=[[0,0.5],[1,0.5]];portConstraint=eastwest;top=0;left=0;right=0;bottom=0;" vertex="1" parent="V0HynzZhf9_uyb5cIiKA-256">
          <mxGeometry y="210" width="200" height="30" as="geometry" />
        </mxCell>
        <mxCell id="V0HynzZhf9_uyb5cIiKA-276" value="FK" style="shape=partialRectangle;overflow=hidden;connectable=0;fillColor=none;top=0;left=0;bottom=0;right=0;" vertex="1" parent="V0HynzZhf9_uyb5cIiKA-275">
          <mxGeometry width="30" height="30" as="geometry" />
        </mxCell>
        <mxCell id="V0HynzZhf9_uyb5cIiKA-277" value="centerID int NOT NULL" style="shape=partialRectangle;overflow=hidden;connectable=0;fillColor=none;top=0;left=0;bottom=0;right=0;align=left;spacingLeft=6;" vertex="1" parent="V0HynzZhf9_uyb5cIiKA-275">
          <mxGeometry x="30" width="170" height="30" as="geometry" />
        </mxCell>
        <mxCell id="V0HynzZhf9_uyb5cIiKA-278" value="" style="shape=partialRectangle;collapsible=0;dropTarget=0;pointerEvents=0;fillColor=none;points=[[0,0.5],[1,0.5]];portConstraint=eastwest;top=0;left=0;right=0;bottom=0;" vertex="1" parent="V0HynzZhf9_uyb5cIiKA-256">
          <mxGeometry y="240" width="200" height="30" as="geometry" />
        </mxCell>
        <mxCell id="V0HynzZhf9_uyb5cIiKA-279" value="" style="shape=partialRectangle;overflow=hidden;connectable=0;fillColor=none;top=0;left=0;bottom=0;right=0;" vertex="1" parent="V0HynzZhf9_uyb5cIiKA-278">
          <mxGeometry width="30" height="30" as="geometry" />
        </mxCell>
        <mxCell id="V0HynzZhf9_uyb5cIiKA-280" value="specialization Char(6)" style="shape=partialRectangle;overflow=hidden;connectable=0;fillColor=none;top=0;left=0;bottom=0;right=0;align=left;spacingLeft=6;" vertex="1" parent="V0HynzZhf9_uyb5cIiKA-278">
          <mxGeometry x="30" width="170" height="30" as="geometry" />
        </mxCell>
        <mxCell id="V0HynzZhf9_uyb5cIiKA-161" value="Log" style="shape=table;startSize=30;container=1;collapsible=1;childLayout=tableLayout;fixedRows=1;rowLines=0;fontStyle=1;align=center;resizeLast=1;" vertex="1" parent="1">
          <mxGeometry x="110" y="830" width="250" height="310" as="geometry" />
        </mxCell>
        <mxCell id="V0HynzZhf9_uyb5cIiKA-162" value="" style="shape=partialRectangle;collapsible=0;dropTarget=0;pointerEvents=0;fillColor=none;points=[[0,0.5],[1,0.5]];portConstraint=eastwest;top=0;left=0;right=0;bottom=1;" vertex="1" parent="V0HynzZhf9_uyb5cIiKA-161">
          <mxGeometry y="30" width="250" height="30" as="geometry" />
        </mxCell>
        <mxCell id="V0HynzZhf9_uyb5cIiKA-163" value="PK" style="shape=partialRectangle;overflow=hidden;connectable=0;fillColor=none;top=0;left=0;bottom=0;right=0;fontStyle=1;" vertex="1" parent="V0HynzZhf9_uyb5cIiKA-162">
          <mxGeometry width="30" height="30" as="geometry" />
        </mxCell>
        <mxCell id="V0HynzZhf9_uyb5cIiKA-164" value="logID int NOT NULL" style="shape=partialRectangle;overflow=hidden;connectable=0;fillColor=none;top=0;left=0;bottom=0;right=0;align=left;spacingLeft=6;fontStyle=5;" vertex="1" parent="V0HynzZhf9_uyb5cIiKA-162">
          <mxGeometry x="30" width="220" height="30" as="geometry" />
        </mxCell>
        <mxCell id="V0HynzZhf9_uyb5cIiKA-165" value="" style="shape=partialRectangle;collapsible=0;dropTarget=0;pointerEvents=0;fillColor=none;points=[[0,0.5],[1,0.5]];portConstraint=eastwest;top=0;left=0;right=0;bottom=0;" vertex="1" parent="V0HynzZhf9_uyb5cIiKA-161">
          <mxGeometry y="60" width="250" height="30" as="geometry" />
        </mxCell>
        <mxCell id="V0HynzZhf9_uyb5cIiKA-166" value="FK" style="shape=partialRectangle;overflow=hidden;connectable=0;fillColor=none;top=0;left=0;bottom=0;right=0;" vertex="1" parent="V0HynzZhf9_uyb5cIiKA-165">
          <mxGeometry width="30" height="30" as="geometry" />
        </mxCell>
        <mxCell id="V0HynzZhf9_uyb5cIiKA-167" value="paitentID int NOT NULL" style="shape=partialRectangle;overflow=hidden;connectable=0;fillColor=none;top=0;left=0;bottom=0;right=0;align=left;spacingLeft=6;" vertex="1" parent="V0HynzZhf9_uyb5cIiKA-165">
          <mxGeometry x="30" width="220" height="30" as="geometry" />
        </mxCell>
        <mxCell id="V0HynzZhf9_uyb5cIiKA-168" value="" style="shape=partialRectangle;collapsible=0;dropTarget=0;pointerEvents=0;fillColor=none;points=[[0,0.5],[1,0.5]];portConstraint=eastwest;top=0;left=0;right=0;bottom=0;" vertex="1" parent="V0HynzZhf9_uyb5cIiKA-161">
          <mxGeometry y="90" width="250" height="30" as="geometry" />
        </mxCell>
        <mxCell id="V0HynzZhf9_uyb5cIiKA-169" value="FK" style="shape=partialRectangle;overflow=hidden;connectable=0;fillColor=none;top=0;left=0;bottom=0;right=0;" vertex="1" parent="V0HynzZhf9_uyb5cIiKA-168">
          <mxGeometry width="30" height="30" as="geometry" />
        </mxCell>
        <mxCell id="V0HynzZhf9_uyb5cIiKA-170" value="contactorID int NOT NULL" style="shape=partialRectangle;overflow=hidden;connectable=0;fillColor=none;top=0;left=0;bottom=0;right=0;align=left;spacingLeft=6;" vertex="1" parent="V0HynzZhf9_uyb5cIiKA-168">
          <mxGeometry x="30" width="220" height="30" as="geometry" />
        </mxCell>
        <mxCell id="V0HynzZhf9_uyb5cIiKA-171" value="" style="shape=partialRectangle;collapsible=0;dropTarget=0;pointerEvents=0;fillColor=none;points=[[0,0.5],[1,0.5]];portConstraint=eastwest;top=0;left=0;right=0;bottom=0;" vertex="1" parent="V0HynzZhf9_uyb5cIiKA-161">
          <mxGeometry y="120" width="250" height="30" as="geometry" />
        </mxCell>
        <mxCell id="V0HynzZhf9_uyb5cIiKA-172" value="FK" style="shape=partialRectangle;overflow=hidden;connectable=0;fillColor=none;top=0;left=0;bottom=0;right=0;" vertex="1" parent="V0HynzZhf9_uyb5cIiKA-171">
          <mxGeometry width="30" height="30" as="geometry" />
        </mxCell>
        <mxCell id="V0HynzZhf9_uyb5cIiKA-173" value="staffID int NOT NULL" style="shape=partialRectangle;overflow=hidden;connectable=0;fillColor=none;top=0;left=0;bottom=0;right=0;align=left;spacingLeft=6;" vertex="1" parent="V0HynzZhf9_uyb5cIiKA-171">
          <mxGeometry x="30" width="220" height="30" as="geometry" />
        </mxCell>
        <mxCell id="V0HynzZhf9_uyb5cIiKA-177" value="" style="shape=partialRectangle;collapsible=0;dropTarget=0;pointerEvents=0;fillColor=none;points=[[0,0.5],[1,0.5]];portConstraint=eastwest;top=0;left=0;right=0;bottom=0;" vertex="1" parent="V0HynzZhf9_uyb5cIiKA-161">
          <mxGeometry y="150" width="250" height="30" as="geometry" />
        </mxCell>
        <mxCell id="V0HynzZhf9_uyb5cIiKA-178" value="FK" style="shape=partialRectangle;overflow=hidden;connectable=0;fillColor=none;top=0;left=0;bottom=0;right=0;" vertex="1" parent="V0HynzZhf9_uyb5cIiKA-177">
          <mxGeometry width="30" height="30" as="geometry" />
        </mxCell>
        <mxCell id="V0HynzZhf9_uyb5cIiKA-179" value="noteID int NOT NULL" style="shape=partialRectangle;overflow=hidden;connectable=0;fillColor=none;top=0;left=0;bottom=0;right=0;align=left;spacingLeft=6;" vertex="1" parent="V0HynzZhf9_uyb5cIiKA-177">
          <mxGeometry x="30" width="220" height="30" as="geometry" />
        </mxCell>
        <mxCell id="V0HynzZhf9_uyb5cIiKA-180" value="" style="shape=partialRectangle;collapsible=0;dropTarget=0;pointerEvents=0;fillColor=none;points=[[0,0.5],[1,0.5]];portConstraint=eastwest;top=0;left=0;right=0;bottom=0;" vertex="1" parent="V0HynzZhf9_uyb5cIiKA-161">
          <mxGeometry y="180" width="250" height="30" as="geometry" />
        </mxCell>
        <mxCell id="V0HynzZhf9_uyb5cIiKA-181" value="" style="shape=partialRectangle;overflow=hidden;connectable=0;fillColor=none;top=0;left=0;bottom=0;right=0;" vertex="1" parent="V0HynzZhf9_uyb5cIiKA-180">
          <mxGeometry width="30" height="30" as="geometry" />
        </mxCell>
        <mxCell id="V0HynzZhf9_uyb5cIiKA-182" value="Date Date" style="shape=partialRectangle;overflow=hidden;connectable=0;fillColor=none;top=0;left=0;bottom=0;right=0;align=left;spacingLeft=6;" vertex="1" parent="V0HynzZhf9_uyb5cIiKA-180">
          <mxGeometry x="30" width="220" height="30" as="geometry" />
        </mxCell>
        <mxCell id="V0HynzZhf9_uyb5cIiKA-183" value="" style="shape=partialRectangle;collapsible=0;dropTarget=0;pointerEvents=0;fillColor=none;points=[[0,0.5],[1,0.5]];portConstraint=eastwest;top=0;left=0;right=0;bottom=0;" vertex="1" parent="V0HynzZhf9_uyb5cIiKA-161">
          <mxGeometry y="210" width="250" height="30" as="geometry" />
        </mxCell>
        <mxCell id="V0HynzZhf9_uyb5cIiKA-184" value="" style="shape=partialRectangle;overflow=hidden;connectable=0;fillColor=none;top=0;left=0;bottom=0;right=0;" vertex="1" parent="V0HynzZhf9_uyb5cIiKA-183">
          <mxGeometry width="30" height="30" as="geometry" />
        </mxCell>
        <mxCell id="V0HynzZhf9_uyb5cIiKA-185" value="StartTime Time" style="shape=partialRectangle;overflow=hidden;connectable=0;fillColor=none;top=0;left=0;bottom=0;right=0;align=left;spacingLeft=6;" vertex="1" parent="V0HynzZhf9_uyb5cIiKA-183">
          <mxGeometry x="30" width="220" height="30" as="geometry" />
        </mxCell>
        <mxCell id="V0HynzZhf9_uyb5cIiKA-186" value="" style="shape=partialRectangle;collapsible=0;dropTarget=0;pointerEvents=0;fillColor=none;points=[[0,0.5],[1,0.5]];portConstraint=eastwest;top=0;left=0;right=0;bottom=0;" vertex="1" parent="V0HynzZhf9_uyb5cIiKA-161">
          <mxGeometry y="240" width="250" height="30" as="geometry" />
        </mxCell>
        <mxCell id="V0HynzZhf9_uyb5cIiKA-187" value="" style="shape=partialRectangle;overflow=hidden;connectable=0;fillColor=none;top=0;left=0;bottom=0;right=0;" vertex="1" parent="V0HynzZhf9_uyb5cIiKA-186">
          <mxGeometry width="30" height="30" as="geometry" />
        </mxCell>
        <mxCell id="V0HynzZhf9_uyb5cIiKA-188" value="EndTime Time" style="shape=partialRectangle;overflow=hidden;connectable=0;fillColor=none;top=0;left=0;bottom=0;right=0;align=left;spacingLeft=6;" vertex="1" parent="V0HynzZhf9_uyb5cIiKA-186">
          <mxGeometry x="30" width="220" height="30" as="geometry" />
        </mxCell>
        <mxCell id="V0HynzZhf9_uyb5cIiKA-189" value="" style="shape=partialRectangle;collapsible=0;dropTarget=0;pointerEvents=0;fillColor=none;points=[[0,0.5],[1,0.5]];portConstraint=eastwest;top=0;left=0;right=0;bottom=0;" vertex="1" parent="V0HynzZhf9_uyb5cIiKA-161">
          <mxGeometry y="270" width="250" height="30" as="geometry" />
        </mxCell>
        <mxCell id="V0HynzZhf9_uyb5cIiKA-190" value="" style="shape=partialRectangle;overflow=hidden;connectable=0;fillColor=none;top=0;left=0;bottom=0;right=0;" vertex="1" parent="V0HynzZhf9_uyb5cIiKA-189">
          <mxGeometry width="30" height="30" as="geometry" />
        </mxCell>
        <mxCell id="V0HynzZhf9_uyb5cIiKA-191" value="NewAppointment Boolean" style="shape=partialRectangle;overflow=hidden;connectable=0;fillColor=none;top=0;left=0;bottom=0;right=0;align=left;spacingLeft=6;" vertex="1" parent="V0HynzZhf9_uyb5cIiKA-189">
          <mxGeometry x="30" width="220" height="30" as="geometry" />
        </mxCell>
        <mxCell id="V0HynzZhf9_uyb5cIiKA-192" value="Contactor" style="shape=table;startSize=30;container=1;collapsible=1;childLayout=tableLayout;fixedRows=1;rowLines=0;fontStyle=1;align=center;resizeLast=1;" vertex="1" parent="1">
          <mxGeometry x="520" y="830" width="250" height="340" as="geometry" />
        </mxCell>
        <mxCell id="V0HynzZhf9_uyb5cIiKA-193" value="" style="shape=partialRectangle;collapsible=0;dropTarget=0;pointerEvents=0;fillColor=none;points=[[0,0.5],[1,0.5]];portConstraint=eastwest;top=0;left=0;right=0;bottom=1;" vertex="1" parent="V0HynzZhf9_uyb5cIiKA-192">
          <mxGeometry y="30" width="250" height="30" as="geometry" />
        </mxCell>
        <mxCell id="V0HynzZhf9_uyb5cIiKA-194" value="PK" style="shape=partialRectangle;overflow=hidden;connectable=0;fillColor=none;top=0;left=0;bottom=0;right=0;fontStyle=1;" vertex="1" parent="V0HynzZhf9_uyb5cIiKA-193">
          <mxGeometry width="30" height="30" as="geometry" />
        </mxCell>
        <mxCell id="V0HynzZhf9_uyb5cIiKA-195" value="contactorID int  NOT NULL " style="shape=partialRectangle;overflow=hidden;connectable=0;fillColor=none;top=0;left=0;bottom=0;right=0;align=left;spacingLeft=6;fontStyle=5;" vertex="1" parent="V0HynzZhf9_uyb5cIiKA-193">
          <mxGeometry x="30" width="220" height="30" as="geometry" />
        </mxCell>
        <mxCell id="V0HynzZhf9_uyb5cIiKA-196" value="" style="shape=partialRectangle;collapsible=0;dropTarget=0;pointerEvents=0;fillColor=none;points=[[0,0.5],[1,0.5]];portConstraint=eastwest;top=0;left=0;right=0;bottom=0;" vertex="1" parent="V0HynzZhf9_uyb5cIiKA-192">
          <mxGeometry y="60" width="250" height="30" as="geometry" />
        </mxCell>
        <mxCell id="V0HynzZhf9_uyb5cIiKA-197" value="" style="shape=partialRectangle;overflow=hidden;connectable=0;fillColor=none;top=0;left=0;bottom=0;right=0;" vertex="1" parent="V0HynzZhf9_uyb5cIiKA-196">
          <mxGeometry width="30" height="30" as="geometry" />
        </mxCell>
        <mxCell id="V0HynzZhf9_uyb5cIiKA-198" value="FName Char(20)" style="shape=partialRectangle;overflow=hidden;connectable=0;fillColor=none;top=0;left=0;bottom=0;right=0;align=left;spacingLeft=6;" vertex="1" parent="V0HynzZhf9_uyb5cIiKA-196">
          <mxGeometry x="30" width="220" height="30" as="geometry" />
        </mxCell>
        <mxCell id="V0HynzZhf9_uyb5cIiKA-199" value="" style="shape=partialRectangle;collapsible=0;dropTarget=0;pointerEvents=0;fillColor=none;points=[[0,0.5],[1,0.5]];portConstraint=eastwest;top=0;left=0;right=0;bottom=0;" vertex="1" parent="V0HynzZhf9_uyb5cIiKA-192">
          <mxGeometry y="90" width="250" height="30" as="geometry" />
        </mxCell>
        <mxCell id="V0HynzZhf9_uyb5cIiKA-200" value="" style="shape=partialRectangle;overflow=hidden;connectable=0;fillColor=none;top=0;left=0;bottom=0;right=0;" vertex="1" parent="V0HynzZhf9_uyb5cIiKA-199">
          <mxGeometry width="30" height="30" as="geometry" />
        </mxCell>
        <mxCell id="V0HynzZhf9_uyb5cIiKA-201" value="LName Char(20)" style="shape=partialRectangle;overflow=hidden;connectable=0;fillColor=none;top=0;left=0;bottom=0;right=0;align=left;spacingLeft=6;" vertex="1" parent="V0HynzZhf9_uyb5cIiKA-199">
          <mxGeometry x="30" width="220" height="30" as="geometry" />
        </mxCell>
        <mxCell id="V0HynzZhf9_uyb5cIiKA-202" value="" style="shape=partialRectangle;collapsible=0;dropTarget=0;pointerEvents=0;fillColor=none;points=[[0,0.5],[1,0.5]];portConstraint=eastwest;top=0;left=0;right=0;bottom=0;" vertex="1" parent="V0HynzZhf9_uyb5cIiKA-192">
          <mxGeometry y="120" width="250" height="30" as="geometry" />
        </mxCell>
        <mxCell id="V0HynzZhf9_uyb5cIiKA-203" value="" style="shape=partialRectangle;overflow=hidden;connectable=0;fillColor=none;top=0;left=0;bottom=0;right=0;" vertex="1" parent="V0HynzZhf9_uyb5cIiKA-202">
          <mxGeometry width="30" height="30" as="geometry" />
        </mxCell>
        <mxCell id="V0HynzZhf9_uyb5cIiKA-204" value="PhoneNumber Int" style="shape=partialRectangle;overflow=hidden;connectable=0;fillColor=none;top=0;left=0;bottom=0;right=0;align=left;spacingLeft=6;" vertex="1" parent="V0HynzZhf9_uyb5cIiKA-202">
          <mxGeometry x="30" width="220" height="30" as="geometry" />
        </mxCell>
        <mxCell id="V0HynzZhf9_uyb5cIiKA-205" value="" style="shape=partialRectangle;collapsible=0;dropTarget=0;pointerEvents=0;fillColor=none;points=[[0,0.5],[1,0.5]];portConstraint=eastwest;top=0;left=0;right=0;bottom=0;" vertex="1" parent="V0HynzZhf9_uyb5cIiKA-192">
          <mxGeometry y="150" width="250" height="30" as="geometry" />
        </mxCell>
        <mxCell id="V0HynzZhf9_uyb5cIiKA-206" value="" style="shape=partialRectangle;overflow=hidden;connectable=0;fillColor=none;top=0;left=0;bottom=0;right=0;" vertex="1" parent="V0HynzZhf9_uyb5cIiKA-205">
          <mxGeometry width="30" height="30" as="geometry" />
        </mxCell>
        <mxCell id="V0HynzZhf9_uyb5cIiKA-207" value="EmailAddress Char(100)" style="shape=partialRectangle;overflow=hidden;connectable=0;fillColor=none;top=0;left=0;bottom=0;right=0;align=left;spacingLeft=6;" vertex="1" parent="V0HynzZhf9_uyb5cIiKA-205">
          <mxGeometry x="30" width="220" height="30" as="geometry" />
        </mxCell>
        <mxCell id="V0HynzZhf9_uyb5cIiKA-208" value="" style="shape=partialRectangle;collapsible=0;dropTarget=0;pointerEvents=0;fillColor=none;points=[[0,0.5],[1,0.5]];portConstraint=eastwest;top=0;left=0;right=0;bottom=0;" vertex="1" parent="V0HynzZhf9_uyb5cIiKA-192">
          <mxGeometry y="180" width="250" height="30" as="geometry" />
        </mxCell>
        <mxCell id="V0HynzZhf9_uyb5cIiKA-209" value="" style="shape=partialRectangle;overflow=hidden;connectable=0;fillColor=none;top=0;left=0;bottom=0;right=0;" vertex="1" parent="V0HynzZhf9_uyb5cIiKA-208">
          <mxGeometry width="30" height="30" as="geometry" />
        </mxCell>
        <mxCell id="V0HynzZhf9_uyb5cIiKA-210" value="Address Char(30)" style="shape=partialRectangle;overflow=hidden;connectable=0;fillColor=none;top=0;left=0;bottom=0;right=0;align=left;spacingLeft=6;" vertex="1" parent="V0HynzZhf9_uyb5cIiKA-208">
          <mxGeometry x="30" width="220" height="30" as="geometry" />
        </mxCell>
        <mxCell id="V0HynzZhf9_uyb5cIiKA-211" value="" style="shape=partialRectangle;collapsible=0;dropTarget=0;pointerEvents=0;fillColor=none;points=[[0,0.5],[1,0.5]];portConstraint=eastwest;top=0;left=0;right=0;bottom=0;" vertex="1" parent="V0HynzZhf9_uyb5cIiKA-192">
          <mxGeometry y="210" width="250" height="30" as="geometry" />
        </mxCell>
        <mxCell id="V0HynzZhf9_uyb5cIiKA-212" value="" style="shape=partialRectangle;overflow=hidden;connectable=0;fillColor=none;top=0;left=0;bottom=0;right=0;" vertex="1" parent="V0HynzZhf9_uyb5cIiKA-211">
          <mxGeometry width="30" height="30" as="geometry" />
        </mxCell>
        <mxCell id="V0HynzZhf9_uyb5cIiKA-213" value="Region / State Char(30)" style="shape=partialRectangle;overflow=hidden;connectable=0;fillColor=none;top=0;left=0;bottom=0;right=0;align=left;spacingLeft=6;" vertex="1" parent="V0HynzZhf9_uyb5cIiKA-211">
          <mxGeometry x="30" width="220" height="30" as="geometry" />
        </mxCell>
        <mxCell id="V0HynzZhf9_uyb5cIiKA-214" value="" style="shape=partialRectangle;collapsible=0;dropTarget=0;pointerEvents=0;fillColor=none;points=[[0,0.5],[1,0.5]];portConstraint=eastwest;top=0;left=0;right=0;bottom=0;" vertex="1" parent="V0HynzZhf9_uyb5cIiKA-192">
          <mxGeometry y="240" width="250" height="30" as="geometry" />
        </mxCell>
        <mxCell id="V0HynzZhf9_uyb5cIiKA-215" value="" style="shape=partialRectangle;overflow=hidden;connectable=0;fillColor=none;top=0;left=0;bottom=0;right=0;" vertex="1" parent="V0HynzZhf9_uyb5cIiKA-214">
          <mxGeometry width="30" height="30" as="geometry" />
        </mxCell>
        <mxCell id="V0HynzZhf9_uyb5cIiKA-216" value="Country Char(30)" style="shape=partialRectangle;overflow=hidden;connectable=0;fillColor=none;top=0;left=0;bottom=0;right=0;align=left;spacingLeft=6;" vertex="1" parent="V0HynzZhf9_uyb5cIiKA-214">
          <mxGeometry x="30" width="220" height="30" as="geometry" />
        </mxCell>
        <mxCell id="V0HynzZhf9_uyb5cIiKA-217" value="" style="shape=partialRectangle;collapsible=0;dropTarget=0;pointerEvents=0;fillColor=none;points=[[0,0.5],[1,0.5]];portConstraint=eastwest;top=0;left=0;right=0;bottom=0;" vertex="1" parent="V0HynzZhf9_uyb5cIiKA-192">
          <mxGeometry y="270" width="250" height="30" as="geometry" />
        </mxCell>
        <mxCell id="V0HynzZhf9_uyb5cIiKA-218" value="" style="shape=partialRectangle;overflow=hidden;connectable=0;fillColor=none;top=0;left=0;bottom=0;right=0;" vertex="1" parent="V0HynzZhf9_uyb5cIiKA-217">
          <mxGeometry width="30" height="30" as="geometry" />
        </mxCell>
        <mxCell id="V0HynzZhf9_uyb5cIiKA-219" value="Relation Char(30)" style="shape=partialRectangle;overflow=hidden;connectable=0;fillColor=none;top=0;left=0;bottom=0;right=0;align=left;spacingLeft=6;" vertex="1" parent="V0HynzZhf9_uyb5cIiKA-217">
          <mxGeometry x="30" width="220" height="30" as="geometry" />
        </mxCell>
        <mxCell id="V0HynzZhf9_uyb5cIiKA-220" value="" style="shape=partialRectangle;collapsible=0;dropTarget=0;pointerEvents=0;fillColor=none;points=[[0,0.5],[1,0.5]];portConstraint=eastwest;top=0;left=0;right=0;bottom=0;" vertex="1" parent="V0HynzZhf9_uyb5cIiKA-192">
          <mxGeometry y="300" width="250" height="30" as="geometry" />
        </mxCell>
        <mxCell id="V0HynzZhf9_uyb5cIiKA-221" value="FK" style="shape=partialRectangle;overflow=hidden;connectable=0;fillColor=none;top=0;left=0;bottom=0;right=0;" vertex="1" parent="V0HynzZhf9_uyb5cIiKA-220">
          <mxGeometry width="30" height="30" as="geometry" />
        </mxCell>
        <mxCell id="V0HynzZhf9_uyb5cIiKA-222" value="paitentID int NOT NULL" style="shape=partialRectangle;overflow=hidden;connectable=0;fillColor=none;top=0;left=0;bottom=0;right=0;align=left;spacingLeft=6;" vertex="1" parent="V0HynzZhf9_uyb5cIiKA-220">
          <mxGeometry x="30" width="220" height="30" as="geometry" />
        </mxCell>
        <mxCell id="V0HynzZhf9_uyb5cIiKA-223" value="" style="edgeStyle=orthogonalEdgeStyle;fontSize=12;html=1;endArrow=ERzeroToMany;endFill=1;exitX=1;exitY=0.5;exitDx=0;exitDy=0;rounded=0;" edge="1" parent="1" source="V0HynzZhf9_uyb5cIiKA-168" target="V0HynzZhf9_uyb5cIiKA-193">
          <mxGeometry width="100" height="100" relative="1" as="geometry">
            <mxPoint x="410" y="990" as="sourcePoint" />
            <mxPoint x="510" y="890" as="targetPoint" />
          </mxGeometry>
        </mxCell>
        <mxCell id="V0HynzZhf9_uyb5cIiKA-224" value="" style="edgeStyle=orthogonalEdgeStyle;fontSize=12;html=1;endArrow=ERmandOne;startArrow=ERmandOne;entryX=0;entryY=0.5;entryDx=0;entryDy=0;exitX=1;exitY=0.5;exitDx=0;exitDy=0;rounded=0;" edge="1" parent="1" source="V0HynzZhf9_uyb5cIiKA-241" target="V0HynzZhf9_uyb5cIiKA-189">
          <mxGeometry width="100" height="100" relative="1" as="geometry">
            <mxPoint x="-170" y="1240" as="sourcePoint" />
            <mxPoint x="-70" y="1140" as="targetPoint" />
          </mxGeometry>
        </mxCell>
        <mxCell id="V0HynzZhf9_uyb5cIiKA-225" value="Boolean = Yes" style="edgeLabel;html=1;align=center;verticalAlign=middle;resizable=0;points=[];horizontal=0;" vertex="1" connectable="0" parent="V0HynzZhf9_uyb5cIiKA-224">
          <mxGeometry x="0.0727" y="-1" relative="1" as="geometry">
            <mxPoint as="offset" />
          </mxGeometry>
        </mxCell>
        <mxCell id="V0HynzZhf9_uyb5cIiKA-226" value="LogLibrary" style="shape=table;startSize=30;container=1;collapsible=1;childLayout=tableLayout;fixedRows=1;rowLines=0;fontStyle=1;align=center;resizeLast=1;" vertex="1" parent="1">
          <mxGeometry x="110" y="1220" width="250" height="100" as="geometry" />
        </mxCell>
        <mxCell id="V0HynzZhf9_uyb5cIiKA-227" value="" style="shape=partialRectangle;collapsible=0;dropTarget=0;pointerEvents=0;fillColor=none;points=[[0,0.5],[1,0.5]];portConstraint=eastwest;top=0;left=0;right=0;bottom=1;" vertex="1" parent="V0HynzZhf9_uyb5cIiKA-226">
          <mxGeometry y="30" width="250" height="30" as="geometry" />
        </mxCell>
        <mxCell id="V0HynzZhf9_uyb5cIiKA-228" value="PK" style="shape=partialRectangle;overflow=hidden;connectable=0;fillColor=none;top=0;left=0;bottom=0;right=0;fontStyle=1;" vertex="1" parent="V0HynzZhf9_uyb5cIiKA-227">
          <mxGeometry width="30" height="30" as="geometry" />
        </mxCell>
        <mxCell id="V0HynzZhf9_uyb5cIiKA-229" value=" libraryID int NOT NULL " style="shape=partialRectangle;overflow=hidden;connectable=0;fillColor=none;top=0;left=0;bottom=0;right=0;align=left;spacingLeft=6;fontStyle=5;" vertex="1" parent="V0HynzZhf9_uyb5cIiKA-227">
          <mxGeometry x="30" width="220" height="30" as="geometry" />
        </mxCell>
        <mxCell id="V0HynzZhf9_uyb5cIiKA-230" value="" style="shape=partialRectangle;collapsible=0;dropTarget=0;pointerEvents=0;fillColor=none;points=[[0,0.5],[1,0.5]];portConstraint=eastwest;top=0;left=0;right=0;bottom=0;" vertex="1" parent="V0HynzZhf9_uyb5cIiKA-226">
          <mxGeometry y="60" width="250" height="30" as="geometry" />
        </mxCell>
        <mxCell id="V0HynzZhf9_uyb5cIiKA-231" value="FK" style="shape=partialRectangle;overflow=hidden;connectable=0;fillColor=none;top=0;left=0;bottom=0;right=0;" vertex="1" parent="V0HynzZhf9_uyb5cIiKA-230">
          <mxGeometry width="30" height="30" as="geometry" />
        </mxCell>
        <mxCell id="V0HynzZhf9_uyb5cIiKA-232" value="logID int NOT NULL" style="shape=partialRectangle;overflow=hidden;connectable=0;fillColor=none;top=0;left=0;bottom=0;right=0;align=left;spacingLeft=6;" vertex="1" parent="V0HynzZhf9_uyb5cIiKA-230">
          <mxGeometry x="30" width="220" height="30" as="geometry" />
        </mxCell>
        <mxCell id="V0HynzZhf9_uyb5cIiKA-233" value="" style="edgeStyle=orthogonalEdgeStyle;fontSize=12;html=1;endArrow=ERzeroToMany;endFill=1;rounded=0;exitX=1;exitY=0.5;exitDx=0;exitDy=0;entryX=1;entryY=0.5;entryDx=0;entryDy=0;" edge="1" parent="1" source="V0HynzZhf9_uyb5cIiKA-162" target="V0HynzZhf9_uyb5cIiKA-230">
          <mxGeometry width="100" height="100" relative="1" as="geometry">
            <mxPoint x="370" y="875" as="sourcePoint" />
            <mxPoint x="530" y="1280" as="targetPoint" />
            <Array as="points">
              <mxPoint x="410" y="875" />
              <mxPoint x="410" y="1295" />
            </Array>
          </mxGeometry>
        </mxCell>
        <mxCell id="V0HynzZhf9_uyb5cIiKA-234" value="Appointment" style="shape=table;startSize=30;container=1;collapsible=1;childLayout=tableLayout;fixedRows=1;rowLines=0;fontStyle=1;align=center;resizeLast=1;" vertex="1" parent="1">
          <mxGeometry x="-290" y="1140" width="250" height="220" as="geometry" />
        </mxCell>
        <mxCell id="V0HynzZhf9_uyb5cIiKA-235" value="" style="shape=partialRectangle;collapsible=0;dropTarget=0;pointerEvents=0;fillColor=none;points=[[0,0.5],[1,0.5]];portConstraint=eastwest;top=0;left=0;right=0;bottom=1;" vertex="1" parent="V0HynzZhf9_uyb5cIiKA-234">
          <mxGeometry y="30" width="250" height="30" as="geometry" />
        </mxCell>
        <mxCell id="V0HynzZhf9_uyb5cIiKA-236" value="PK" style="shape=partialRectangle;overflow=hidden;connectable=0;fillColor=none;top=0;left=0;bottom=0;right=0;fontStyle=1;" vertex="1" parent="V0HynzZhf9_uyb5cIiKA-235">
          <mxGeometry width="30" height="30" as="geometry" />
        </mxCell>
        <mxCell id="V0HynzZhf9_uyb5cIiKA-237" value="appointmentID int  NOT NULL " style="shape=partialRectangle;overflow=hidden;connectable=0;fillColor=none;top=0;left=0;bottom=0;right=0;align=left;spacingLeft=6;fontStyle=5;" vertex="1" parent="V0HynzZhf9_uyb5cIiKA-235">
          <mxGeometry x="30" width="220" height="30" as="geometry" />
        </mxCell>
        <mxCell id="V0HynzZhf9_uyb5cIiKA-238" value="" style="shape=partialRectangle;collapsible=0;dropTarget=0;pointerEvents=0;fillColor=none;points=[[0,0.5],[1,0.5]];portConstraint=eastwest;top=0;left=0;right=0;bottom=0;" vertex="1" parent="V0HynzZhf9_uyb5cIiKA-234">
          <mxGeometry y="60" width="250" height="30" as="geometry" />
        </mxCell>
        <mxCell id="V0HynzZhf9_uyb5cIiKA-239" value="FK" style="shape=partialRectangle;overflow=hidden;connectable=0;fillColor=none;top=0;left=0;bottom=0;right=0;" vertex="1" parent="V0HynzZhf9_uyb5cIiKA-238">
          <mxGeometry width="30" height="30" as="geometry" />
        </mxCell>
        <mxCell id="V0HynzZhf9_uyb5cIiKA-240" value="paitentID int NOT NULL" style="shape=partialRectangle;overflow=hidden;connectable=0;fillColor=none;top=0;left=0;bottom=0;right=0;align=left;spacingLeft=6;" vertex="1" parent="V0HynzZhf9_uyb5cIiKA-238">
          <mxGeometry x="30" width="220" height="30" as="geometry" />
        </mxCell>
        <mxCell id="V0HynzZhf9_uyb5cIiKA-241" value="" style="shape=partialRectangle;collapsible=0;dropTarget=0;pointerEvents=0;fillColor=none;points=[[0,0.5],[1,0.5]];portConstraint=eastwest;top=0;left=0;right=0;bottom=0;" vertex="1" parent="V0HynzZhf9_uyb5cIiKA-234">
          <mxGeometry y="90" width="250" height="30" as="geometry" />
        </mxCell>
        <mxCell id="V0HynzZhf9_uyb5cIiKA-242" value="" style="shape=partialRectangle;overflow=hidden;connectable=0;fillColor=none;top=0;left=0;bottom=0;right=0;" vertex="1" parent="V0HynzZhf9_uyb5cIiKA-241">
          <mxGeometry width="30" height="30" as="geometry" />
        </mxCell>
        <mxCell id="V0HynzZhf9_uyb5cIiKA-243" value="Date Date" style="shape=partialRectangle;overflow=hidden;connectable=0;fillColor=none;top=0;left=0;bottom=0;right=0;align=left;spacingLeft=6;" vertex="1" parent="V0HynzZhf9_uyb5cIiKA-241">
          <mxGeometry x="30" width="220" height="30" as="geometry" />
        </mxCell>
        <mxCell id="V0HynzZhf9_uyb5cIiKA-244" value="" style="shape=partialRectangle;collapsible=0;dropTarget=0;pointerEvents=0;fillColor=none;points=[[0,0.5],[1,0.5]];portConstraint=eastwest;top=0;left=0;right=0;bottom=0;" vertex="1" parent="V0HynzZhf9_uyb5cIiKA-234">
          <mxGeometry y="120" width="250" height="30" as="geometry" />
        </mxCell>
        <mxCell id="V0HynzZhf9_uyb5cIiKA-245" value="" style="shape=partialRectangle;overflow=hidden;connectable=0;fillColor=none;top=0;left=0;bottom=0;right=0;" vertex="1" parent="V0HynzZhf9_uyb5cIiKA-244">
          <mxGeometry width="30" height="30" as="geometry" />
        </mxCell>
        <mxCell id="V0HynzZhf9_uyb5cIiKA-246" value="Time Time" style="shape=partialRectangle;overflow=hidden;connectable=0;fillColor=none;top=0;left=0;bottom=0;right=0;align=left;spacingLeft=6;" vertex="1" parent="V0HynzZhf9_uyb5cIiKA-244">
          <mxGeometry x="30" width="220" height="30" as="geometry" />
        </mxCell>
        <mxCell id="V0HynzZhf9_uyb5cIiKA-247" value="" style="shape=partialRectangle;collapsible=0;dropTarget=0;pointerEvents=0;fillColor=none;points=[[0,0.5],[1,0.5]];portConstraint=eastwest;top=0;left=0;right=0;bottom=0;" vertex="1" parent="V0HynzZhf9_uyb5cIiKA-234">
          <mxGeometry y="150" width="250" height="30" as="geometry" />
        </mxCell>
        <mxCell id="V0HynzZhf9_uyb5cIiKA-248" value="FK" style="shape=partialRectangle;overflow=hidden;connectable=0;fillColor=none;top=0;left=0;bottom=0;right=0;" vertex="1" parent="V0HynzZhf9_uyb5cIiKA-247">
          <mxGeometry width="30" height="30" as="geometry" />
        </mxCell>
        <mxCell id="V0HynzZhf9_uyb5cIiKA-249" value="careID int NOT NULL" style="shape=partialRectangle;overflow=hidden;connectable=0;fillColor=none;top=0;left=0;bottom=0;right=0;align=left;spacingLeft=6;" vertex="1" parent="V0HynzZhf9_uyb5cIiKA-247">
          <mxGeometry x="30" width="220" height="30" as="geometry" />
        </mxCell>
        <mxCell id="V0HynzZhf9_uyb5cIiKA-250" value="" style="shape=partialRectangle;collapsible=0;dropTarget=0;pointerEvents=0;fillColor=none;points=[[0,0.5],[1,0.5]];portConstraint=eastwest;top=0;left=0;right=0;bottom=0;" vertex="1" parent="V0HynzZhf9_uyb5cIiKA-234">
          <mxGeometry y="180" width="250" height="30" as="geometry" />
        </mxCell>
        <mxCell id="V0HynzZhf9_uyb5cIiKA-251" value="FK" style="shape=partialRectangle;overflow=hidden;connectable=0;fillColor=none;top=0;left=0;bottom=0;right=0;" vertex="1" parent="V0HynzZhf9_uyb5cIiKA-250">
          <mxGeometry width="30" height="30" as="geometry" />
        </mxCell>
        <mxCell id="V0HynzZhf9_uyb5cIiKA-252" value="careID int NOT NULL" style="shape=partialRectangle;overflow=hidden;connectable=0;fillColor=none;top=0;left=0;bottom=0;right=0;align=left;spacingLeft=6;" vertex="1" parent="V0HynzZhf9_uyb5cIiKA-250">
          <mxGeometry x="30" width="220" height="30" as="geometry" />
        </mxCell>
        <mxCell id="V0HynzZhf9_uyb5cIiKA-254" value="" style="edgeStyle=orthogonalEdgeStyle;fontSize=12;html=1;endArrow=ERzeroToMany;endFill=1;exitX=0;exitY=0.5;exitDx=0;exitDy=0;entryX=0;entryY=0.5;entryDx=0;entryDy=0;rounded=0;" edge="1" parent="1" source="V0HynzZhf9_uyb5cIiKA-177" target="V0HynzZhf9_uyb5cIiKA-146">
          <mxGeometry width="100" height="100" relative="1" as="geometry">
            <mxPoint x="-230" y="1080" as="sourcePoint" />
            <mxPoint x="-310" y="650" as="targetPoint" />
            <Array as="points">
              <mxPoint x="-400" y="995" />
              <mxPoint x="-400" y="435" />
            </Array>
          </mxGeometry>
        </mxCell>
        <mxCell id="V0HynzZhf9_uyb5cIiKA-255" value="" style="edgeStyle=orthogonalEdgeStyle;fontSize=12;html=1;endArrow=ERmandOne;entryX=0;entryY=0.5;entryDx=0;entryDy=0;rounded=0;exitX=0;exitY=0.5;exitDx=0;exitDy=0;" edge="1" parent="1" source="V0HynzZhf9_uyb5cIiKA-165" target="V0HynzZhf9_uyb5cIiKA-2">
          <mxGeometry width="100" height="100" relative="1" as="geometry">
            <mxPoint x="-230" y="730" as="sourcePoint" />
            <mxPoint x="-130" y="630" as="targetPoint" />
            <Array as="points">
              <mxPoint x="-30" y="905" />
              <mxPoint x="-30" y="85" />
            </Array>
          </mxGeometry>
        </mxCell>
      </root>
    </mxGraphModel>
  </diagram>
</mxfile>
